<svg id="Layer_1" data-name="Layer 1" xmlns="http://www.w3.org/2000/svg" viewBox="0 0 448 448"><defs><style>.cls-1{fill:#9370db;}</style></defs><path class="cls-1" d="M400,32H48A48,48,0,0,0,0,80V432a48,48,0,0,0,48,48H400a48,48,0,0,0,48-48V80A48,48,0,0,0,400,32ZM351.1,190.8c.2,2.8.2,5.7.2,8.5,0,86.7-66,186.6-186.6,186.6A185.74,185.74,0,0,1,64,356.5a138.17,138.17,0,0,0,15.8.8,131.49,131.49,0,0,0,81.4-28,65.67,65.67,0,0,1-61.3-45.5c10.1,1.5,19.2,1.5,29.6-1.2A65.59,65.59,0,0,1,77,218.2v-.8a65.54,65.54,0,0,0,29.6,8.3,65.44,65.44,0,0,1-29.2-54.6A64.77,64.77,0,0,1,86.3,138a186.22,186.22,0,0,0,135.2,68.6c-9.3-44.5,24-80.6,64-80.6a65.35,65.35,0,0,1,47.9,20.7A128.52,128.52,0,0,0,375,130.9,65.41,65.41,0,0,1,346.2,167,130.52,130.52,0,0,0,384,156.8,138,138,0,0,1,351.1,190.8Z" transform="translate(0 -32)"/></svg>